<svg xmlns="http://www.w3.org/2000/svg" viewBox="0 0 300 98.43"><defs><style>.a{fill:#1fb598;}.b{fill:#4fbdab;}.c{fill:#e76430;}.d{fill:#f28852;}.e{fill:#41414d;}</style></defs><title>KAROTTE 300px</title><path class="a" d="M46.3,45.75C33.82,48.43,27.77,51.11,23,57.07s-11.2,5.42-12.9,1.57c-2.43-5.51,2-9.3,6.36-11a82.14,82.14,0,0,1,12.47-3.48c2.74-.59,57.72-3.91,45-2.72C72.06,41.58,52.31,44.46,46.3,45.75Z"/><polygon class="b" points="84.47 36.09 84.47 36.09 84.47 36.09 84.47 36.09"/><path class="b" d="M210.2,31.6c-.62.3-47.61,4.41-64,5.26-12.73.66-90.24,5-112.42,8.32C21.47,47,9.6,45.16,3.21,38.55S.92,27,6,25.1c6.63-2.51,12,4.17,17.58,6.45.05-.06-4.12-1.9-3.14-4.83,1.29-3.84,7.94-.09,13.59,4.41,8.39,5.85,13.35,6.67,18,7.07,13.73,1.2,57.85-1.85,79.21-3.43,34.44-2.55,77.45-10.89,77-10.69Z"/><path class="a" d="M205.16,24.62s.67,5.86,1.46,9.5l2.85-.19-1.15-9.85Z"/><path class="a" d="M208.2,31s-10.68,2.79-11.62,7.6,4,5.6,5.78,3.2,5.55-6.93,6.37-8.25V31Z"/><path class="c" d="M221.16,6.84h0l2-.31a199.87,199.87,0,0,1,47.52-1.12l2.1.2A181.33,181.33,0,0,1,298.31,10a2.18,2.18,0,0,1,1.45,1.16l0,.06a.61.61,0,0,1,0,.12,2.59,2.59,0,0,1-.66,2.71,92.8,92.8,0,0,1-10.8,9.27c-.57.44-1.17.88-1.78,1.34a184.42,184.42,0,0,1-24.37,15.28l-1.86.95a149.43,149.43,0,0,1-21.59,8.94c-.64.21-1.29.41-1.94.6q-2.58.8-5.22,1.47c-13.16,3.37-20.78-8.56-23.58-19.12-.22-.83-.41-1.65-.58-2.45a.69.69,0,0,0,0-.13l0-.12c0-.15,0-.3-.08-.46-.12-.65-.22-1.31-.31-2a1.49,1.49,0,0,1,0-.21s0-.08,0-.12C205.89,18.09,208.53,8.87,221.16,6.84Z"/><path class="d" d="M220,1.34l.49-.09L222,1c15.86-2.26,33.72-.43,48.21,2.18l2.15.39A228.82,228.82,0,0,1,298.31,10a2.42,2.42,0,0,1,1.45,1.16l0,.06a.61.61,0,0,1,0,.12,2.34,2.34,0,0,1-.45.5,82.59,82.59,0,0,1-11.76,7.87c-.61.35-1.22.69-1.85,1A197.44,197.44,0,0,1,260.56,32l-1.91.7c-9.2,3.36-19.58,6.58-31,9.51-9.1,2.33-15.55-2.65-19.59-9.44-.22-.83-.41-1.65-.58-2.45a.69.69,0,0,0,0-.13l0-.12c0-.15,0-.3-.08-.46-.12-.63-.22-1.29-.31-2a1.49,1.49,0,0,1,0-.21s0-.08,0-.12C205.75,17.31,207.73,3.65,220,1.34Z"/><path class="e" d="M220,1.34l.49-.09L222,1l3,14.12a1,1,0,0,1-1.54,1.05,1,1,0,0,1-.43-.63Z"/><rect class="e" x="232.51" y="19.39" width="17.28" height="2.02" rx="0.2" transform="translate(270.7 260.6) rotate(-101.85)"/><path class="e" d="M270.21,3.2l2.15.39,2.1,10a1,1,0,0,1-1.55,1,1,1,0,0,1-.43-.63Z"/><rect class="e" x="209.51" y="30.07" width="17.28" height="2.02" rx="0.2" transform="translate(232.53 250.97) rotate(-101.85)"/><path class="e" d="M258.64,27.71a1,1,0,0,1,1.19.78l2.4,11.43-1.86.95-2.52-12A1,1,0,0,1,258.64,27.71Z"/><path class="e" d="M237.3,47.69a1,1,0,0,1,.76.14,1,1,0,0,1,.44.64l.28,1.34c-.64.21-1.29.41-1.94.6l-.32-1.53A1,1,0,0,1,237.3,47.69Z"/><path class="e" d="M285.66,15.26a1,1,0,0,1,1.2.77l1.52,7.27c-.57.44-1.17.88-1.78,1.34l-1.72-8.19A1,1,0,0,1,285.66,15.26Z"/><path class="b" d="M66.76,88.06l-2.25-2.4-2.38-2.57-2.31-2.56L65.33,75a11.23,11.23,0,0,0,1.84-2.28,4.27,4.27,0,0,0,.58-2.16,3.41,3.41,0,0,0-1.3-2.66,6.55,6.55,0,0,0-4.29-1.12L53,77.32v-7a5.27,5.27,0,0,0-.26-1.85,2.32,2.32,0,0,0-.79-1.1,3.07,3.07,0,0,0-1.3-.55,8.58,8.58,0,0,0-1.78-.16,13,13,0,0,0-2,.16l-1.55.24V90.3a5.24,5.24,0,0,0,.27,1.85,2.39,2.39,0,0,0,.79,1.1,3.14,3.14,0,0,0,1.3.55,9.39,9.39,0,0,0,1.78.15,16.32,16.32,0,0,0,2.07-.13,12.45,12.45,0,0,0,1.54-.26V83.83l6.2,7.22a17,17,0,0,0,2.2,2.14,5.12,5.12,0,0,0,4.54.63A4.05,4.05,0,0,0,67.33,93a3.95,3.95,0,0,0,1.3-3Z"/><path class="b" d="M95.33,87.24q-.87-3.13-1.8-6.38t-1.85-6.27c-.61-2-1.19-3.79-1.71-5.32a3.39,3.39,0,0,0-2.18-2,10.92,10.92,0,0,0-3.9-.64,11.78,11.78,0,0,0-3,.4,9.25,9.25,0,0,0-2.27.83c-.21.53-.49,1.29-.86,2.29s-.77,2.13-1.21,3.41l-1.41,4.07c-.5,1.44-1,2.84-1.4,4.2s-.85,2.63-1.21,3.81-.66,2.15-.86,3c-.15.55-.28,1-.4,1.45a4.35,4.35,0,0,0-.17,1.23,2.46,2.46,0,0,0,1.07,2.13,5.72,5.72,0,0,0,3.33.78A7.81,7.81,0,0,0,77.1,94a12.14,12.14,0,0,0,1.29-.37c.24-.88.47-1.79.71-2.73s.47-1.85.7-2.73h8l.79,3a7.44,7.44,0,0,0,.5,1.32,2.64,2.64,0,0,0,.75.92A3.19,3.19,0,0,0,91,94a8.64,8.64,0,0,0,4.29-.2,3.64,3.64,0,0,0,1.58-1C96.44,91.2,95.92,89.34,95.33,87.24Zm-14.25-5c.41-1.55.87-3.09,1.38-4.6s1-2.88,1.39-4.11h.26c.36,1.2.74,2.56,1.17,4.07s.84,3.06,1.25,4.64Z"/><path class="b" d="M120.68,87.49q-1.55-1.89-3.12-4a10.18,10.18,0,0,0,3.34-3,7.72,7.72,0,0,0,1.41-4.67,8.52,8.52,0,0,0-3.08-6.91c-2-1.7-5.11-2.55-9.15-2.55a35.21,35.21,0,0,0-4.23.24,16.62,16.62,0,0,0-3.48.77,3.69,3.69,0,0,0-1.38.82,1.91,1.91,0,0,0-.51,1.43V90.3a5.24,5.24,0,0,0,.27,1.85,2.36,2.36,0,0,0,.77,1.1,3,3,0,0,0,1.27.55,9.46,9.46,0,0,0,1.78.15,15.79,15.79,0,0,0,2.05-.13,12.32,12.32,0,0,0,1.52-.26V85.11h2.33l3.7,5.94a12.57,12.57,0,0,0,.83,1.23,5.24,5.24,0,0,0,1,1,4.18,4.18,0,0,0,1.23.62,5.9,5.9,0,0,0,1.68.22,4.4,4.4,0,0,0,2.61-.82,4.09,4.09,0,0,0,1.61-2.35A25.77,25.77,0,0,0,120.68,87.49Zm-7.13-9.09a3.83,3.83,0,0,1-2.64.86H108.1v-6.6a8.16,8.16,0,0,1,.88-.13,9.41,9.41,0,0,1,1,0,5.47,5.47,0,0,1,3.41.86,3,3,0,0,1,1.08,2.53A3.18,3.18,0,0,1,113.55,78.4Z"/><path class="d" d="M162.89,74.75c-.09-.36-.2-.71-.31-1.06s-.26-.73-.4-1.09A15.88,15.88,0,0,0,158.39,67a16.08,16.08,0,0,0-5.65-3.45,21.29,21.29,0,0,0-14,0,15.66,15.66,0,0,0-9.38,9.09A20.31,20.31,0,0,0,128,80.05v.3c0,.26,0,.51,0,.77a20.25,20.25,0,0,0,1.33,6.93,16.38,16.38,0,0,0,3.71,5.67,15.93,15.93,0,0,0,5.62,3.51,20.3,20.3,0,0,0,7.07,1.2,20.55,20.55,0,0,0,7.08-1.18,16.15,16.15,0,0,0,3.64-1.84,14.17,14.17,0,0,0,1.39-1.06h0c.21-.17.41-.36.61-.55a15.64,15.64,0,0,0,3.74-5.67,21,21,0,0,0,1.34-7.78A22.4,22.4,0,0,0,162.89,74.75ZM144.23,90.38a6.55,6.55,0,0,1-2.61-1.06A7.16,7.16,0,0,1,140.19,88c-1.38-1.68-2.08-4.23-2.08-7.64s.71-5.94,2.11-7.61a7,7,0,0,1,5.59-2.5,6.83,6.83,0,0,1,5.59,2.53c1.36,1.68,2,4.21,2,7.58s-.7,6-2.08,7.64a6.92,6.92,0,0,1-5.62,2.53A8.26,8.26,0,0,1,144.23,90.38Z"/><path class="b" d="M189.34,68.26a5.55,5.55,0,0,0-.58-1.32H169.58a2.77,2.77,0,0,0-2,.74,3.34,3.34,0,0,0-.77,2.47,6.18,6.18,0,0,0,.83,3.08h6.6V90.3a5.24,5.24,0,0,0,.27,1.85,2.32,2.32,0,0,0,.79,1.1,3.14,3.14,0,0,0,1.3.55,9.32,9.32,0,0,0,1.78.15,15.9,15.9,0,0,0,2.05-.13,12.44,12.44,0,0,0,1.51-.26V73.23h4.89a2.74,2.74,0,0,0,2-.75A3.34,3.34,0,0,0,189.6,70,6,6,0,0,0,189.34,68.26Z"/><path class="b" d="M214.24,68.26a5.57,5.57,0,0,0-.57-1.32H194.48a2.79,2.79,0,0,0-2,.74,3.38,3.38,0,0,0-.77,2.47,5.69,5.69,0,0,0,.27,1.76,5.19,5.19,0,0,0,.57,1.32h6.6V90.3a5.51,5.51,0,0,0,.26,1.85,2.39,2.39,0,0,0,.79,1.1,3.26,3.26,0,0,0,1.3.55,9.46,9.46,0,0,0,1.78.15,15.79,15.79,0,0,0,2.05-.13,12.32,12.32,0,0,0,1.52-.26V73.23h4.88a2.78,2.78,0,0,0,2-.75,3.34,3.34,0,0,0,.77-2.46A5.69,5.69,0,0,0,214.24,68.26Z"/><path class="b" d="M237.59,89.07a5.55,5.55,0,0,0-.56-1.28h-11.3V83.17h8.09a2.56,2.56,0,0,0,1.9-.7,3.33,3.33,0,0,0,.7-2.38,5.58,5.58,0,0,0-.24-1.65,5.48,5.48,0,0,0-.55-1.25h-9.9V73.1H235a2.66,2.66,0,0,0,1.92-.71,3.23,3.23,0,0,0,.72-2.37,5.67,5.67,0,0,0-.24-1.67,5.38,5.38,0,0,0-.55-1.28H222.34a3.8,3.8,0,0,0-4.09,4.09V89.78a3.8,3.8,0,0,0,4.09,4.09h12.85a2.59,2.59,0,0,0,1.91-.73,3.27,3.27,0,0,0,.73-2.4A5.76,5.76,0,0,0,237.59,89.07Z"/><path class="e" d="M162.89,74.75h-6.14a.53.53,0,0,1-.53-.53.51.51,0,0,1,.16-.37.49.49,0,0,1,.37-.16h5.83C162.69,74,162.8,74.39,162.89,74.75Z"/><rect class="e" x="137.48" y="65.88" width="8.35" height="1.06" rx="0.11"/><path class="e" d="M134.78,80.59a.52.52,0,0,1-.16.37.53.53,0,0,1-.38.16H128c0-.26,0-.51,0-.77v-.3h6.23A.54.54,0,0,1,134.78,80.59Z"/><path class="e" d="M144.23,90.38h-5.58a.53.53,0,0,1-.54-.53.49.49,0,0,1,.16-.37.53.53,0,0,1,.38-.16h3A6.55,6.55,0,0,0,144.23,90.38Z"/><path class="e" d="M157.86,94.35a14.17,14.17,0,0,1-1.39,1.06h-5.94a.53.53,0,0,1-.53-.53.51.51,0,0,1,.16-.37.49.49,0,0,1,.37-.16h7.33Z"/></svg>