<svg xmlns="http://www.w3.org/2000/svg" viewBox="0 0 60 19.69"><defs><style>.a{fill:#00b698;}.b{fill:#43beab;}.c{fill:#eb6424;}.d{fill:#f6884b;}.e{fill:#42414d;}</style></defs><title>KAROTTE 60px</title><path class="a" d="M9.26,9.15c-2.5.54-3.71,1.07-4.66,2.26S2.36,12.5,2,11.73c-.48-1.1.4-1.86,1.27-2.21a17.28,17.28,0,0,1,2.5-.7c.55-.11,11.54-.78,9-.54C14.41,8.32,10.46,8.89,9.26,9.15Z"/><polygon class="b" points="16.89 7.22 16.89 7.22 16.89 7.22 16.89 7.22"/><path class="b" d="M42,6.32c-.12.06-9.52.88-12.8,1-2.54.13-18,1-22.48,1.67C4.29,9.41,1.92,9,.64,7.71S.18,5.41,1.21,5c1.32-.5,2.39.83,3.51,1.29,0,0-.82-.38-.62-1,.25-.76,1.58,0,2.71.89a6.57,6.57,0,0,0,3.61,1.41C13.16,7.88,22,7.27,26.26,7c6.89-.51,15.49-2.17,15.4-2.13Z"/><path class="a" d="M41,4.92s.14,1.18.29,1.9l.57,0-.23-2Z"/><path class="a" d="M41.64,6.2s-2.14.56-2.32,1.52a.66.66,0,0,0,1.15.64c.36-.48,1.11-1.39,1.28-1.65V6.19Z"/><path class="c" d="M44.23,1.37h0l.4-.06a39.52,39.52,0,0,1,9.51-.23l.42,0a35.6,35.6,0,0,1,5.1.88.41.41,0,0,1,.29.23h0v0a.55.55,0,0,1-.13.55,19.91,19.91,0,0,1-2.16,1.85l-.36.27A37.65,37.65,0,0,1,52.45,8l-.38.19A28.83,28.83,0,0,1,47.76,10l-.39.12c-.35.11-.69.21-1,.3-2.63.67-4.15-1.72-4.71-3.83,0-.16-.08-.33-.12-.49V5.92c0-.13,0-.26-.07-.39V5.46C41.18,3.62,41.71,1.77,44.23,1.37Z"/><path class="d" d="M44,.27l.1,0,.3,0A31.81,31.81,0,0,1,54,.64l.43.08A44.22,44.22,0,0,1,59.66,2a.43.43,0,0,1,.29.23h0v0l-.09.1a16.15,16.15,0,0,1-2.35,1.58l-.37.2a40,40,0,0,1-5,2.26l-.38.14c-1.84.67-3.92,1.31-6.2,1.9a3.42,3.42,0,0,1-3.92-1.89c0-.16-.08-.33-.12-.49V5.92c0-.13,0-.26-.07-.39V5.46C41.15,3.46,41.55.73,44,.27Z"/><path class="e" d="M44,.27l.1,0,.3,0L45,3a.2.2,0,0,1-.15.24.22.22,0,0,1-.16,0,.2.2,0,0,1-.08-.13Z"/><rect class="e" x="46.5" y="3.88" width="3.46" height="0.4" rx="0.2" transform="translate(54.14 52.12) rotate(-101.85)"/><path class="e" d="M54,.64l.43.08.42,2a.2.2,0,0,1-.16.23.2.2,0,0,1-.15,0,.22.22,0,0,1-.08-.13Z"/><rect class="e" x="41.9" y="6.01" width="3.46" height="0.4" rx="0.2" transform="translate(46.51 50.19) rotate(-101.85)"/><path class="e" d="M51.73,5.54a.2.2,0,0,1,.15,0A.25.25,0,0,1,52,5.7L52.45,8l-.38.19-.5-2.39A.21.21,0,0,1,51.73,5.54Z"/><path class="e" d="M47.46,9.54a.19.19,0,0,1,.15,0,.16.16,0,0,1,.09.12l.06.27-.39.12-.07-.3A.21.21,0,0,1,47.46,9.54Z"/><path class="e" d="M57.13,3.05a.19.19,0,0,1,.15,0,.18.18,0,0,1,.09.13l.31,1.45-.36.27L57,3.29A.2.2,0,0,1,57.13,3.05Z"/><path class="b" d="M13.35,17.61l-.45-.48-.47-.51L12,16.11,13.07,15a2.08,2.08,0,0,0,.36-.46.85.85,0,0,0,.12-.43.67.67,0,0,0-.26-.53,1.3,1.3,0,0,0-.86-.23l-1.83,2.1V14.07a1.18,1.18,0,0,0,0-.37.47.47,0,0,0-.16-.22.56.56,0,0,0-.26-.11,1.28,1.28,0,0,0-.36,0,1.87,1.87,0,0,0-.4,0l-.31,0v4.65a1.22,1.22,0,0,0,0,.37.52.52,0,0,0,.16.22.68.68,0,0,0,.26.11,1.86,1.86,0,0,0,.36,0l.41,0a1.41,1.41,0,0,0,.31-.05V16.77l1.24,1.44a3.55,3.55,0,0,0,.44.43.92.92,0,0,0,.59.18.87.87,0,0,0,.32-.06.72.72,0,0,0,.27-.15.81.81,0,0,0,.18-.26.74.74,0,0,0,.08-.34Z"/><path class="b" d="M19.07,17.45l-.36-1.28-.37-1.25c-.13-.41-.24-.76-.35-1.07a.69.69,0,0,0-.43-.4,2.37,2.37,0,0,0-.78-.12,2.09,2.09,0,0,0-.61.08,1.7,1.7,0,0,0-.46.16c0,.11-.09.26-.17.46l-.24.68-.28.82c-.1.28-.19.56-.28.84s-.17.52-.24.76-.14.43-.18.59-.05.21-.08.29a1,1,0,0,0,0,.24.49.49,0,0,0,.21.43,1.2,1.2,0,0,0,.67.16,1.49,1.49,0,0,0,.33,0l.26-.07c.05-.18.09-.36.14-.55s.09-.37.14-.54h1.59l.16.61a1.57,1.57,0,0,0,.1.26.45.45,0,0,0,.15.18.53.53,0,0,0,.24.11,1.79,1.79,0,0,0,.36,0,1.5,1.5,0,0,0,.5-.08.72.72,0,0,0,.31-.2C19.29,18.24,19.18,17.87,19.07,17.45Zm-2.85-1c.08-.31.17-.62.27-.92s.2-.58.28-.82h.05l.24.81c.08.3.16.61.25.93Z"/><path class="b" d="M24.14,17.5q-.32-.37-.63-.81a2,2,0,0,0,.67-.6,1.53,1.53,0,0,0,.28-.93,1.72,1.72,0,0,0-.61-1.39A2.83,2.83,0,0,0,22,13.26a7.48,7.48,0,0,0-.85.05,3.28,3.28,0,0,0-.7.16.72.72,0,0,0-.27.16.38.38,0,0,0-.1.29v4.14a1,1,0,0,0,0,.37.51.51,0,0,0,.15.22.68.68,0,0,0,.26.11,1.83,1.83,0,0,0,.35,0,2.73,2.73,0,0,0,.41,0,1.53,1.53,0,0,0,.31-.05V17h.46l.74,1.19.17.25a1.14,1.14,0,0,0,.19.19,1,1,0,0,0,.25.12,1.11,1.11,0,0,0,.34.05.9.9,0,0,0,.52-.17.81.81,0,0,0,.32-.47A6.29,6.29,0,0,0,24.14,17.5Zm-1.43-1.82a.78.78,0,0,1-.53.17h-.56V14.53l.18,0H22a1.07,1.07,0,0,1,.68.17.6.6,0,0,1,.21.5A.63.63,0,0,1,22.71,15.68Z"/><path class="d" d="M32.58,15l-.06-.21c0-.08-.06-.15-.08-.22a3.26,3.26,0,0,0-.76-1.13,3.34,3.34,0,0,0-1.13-.69,4.38,4.38,0,0,0-2.8,0,3.29,3.29,0,0,0-1.12.69,3.11,3.11,0,0,0-.75,1.13A4,4,0,0,0,25.6,16v.21a4.24,4.24,0,0,0,.27,1.39,3.22,3.22,0,0,0,.74,1.13,3.29,3.29,0,0,0,1.13.71,4,4,0,0,0,1.41.24,4.11,4.11,0,0,0,1.42-.24,3.06,3.06,0,0,0,.72-.37,1.86,1.86,0,0,0,.28-.21h0l.12-.11a3.11,3.11,0,0,0,.75-1.13,4.25,4.25,0,0,0,.27-1.56A4.36,4.36,0,0,0,32.58,15Zm-3.73,3.13A1.35,1.35,0,0,1,28,17.6a2.37,2.37,0,0,1-.42-1.53A2.32,2.32,0,0,1,28,14.55a1.41,1.41,0,0,1,1.12-.5,1.38,1.38,0,0,1,1.12.5,2.42,2.42,0,0,1,.41,1.52,2.37,2.37,0,0,1-.42,1.53,1.38,1.38,0,0,1-1.12.5Z"/><path class="b" d="M37.87,13.65a1.29,1.29,0,0,0-.12-.26H33.92a.54.54,0,0,0-.4.15.63.63,0,0,0-.16.49,1.34,1.34,0,0,0,0,.35,1.78,1.78,0,0,0,.12.27h1.32v3.41a1.22,1.22,0,0,0,0,.37.52.52,0,0,0,.16.22.68.68,0,0,0,.26.11,1.86,1.86,0,0,0,.36,0l.41,0a1.54,1.54,0,0,0,.3-.05V14.65h1a.57.57,0,0,0,.4-.15.7.7,0,0,0,.15-.5A1.34,1.34,0,0,0,37.87,13.65Z"/><path class="b" d="M42.85,13.65a1.29,1.29,0,0,0-.12-.26H38.9a.54.54,0,0,0-.4.15.63.63,0,0,0-.16.49,1,1,0,0,0,.06.35,1.16,1.16,0,0,0,.11.27h1.32v3.41a1.22,1.22,0,0,0,.05.37.52.52,0,0,0,.16.22.68.68,0,0,0,.26.11,1.86,1.86,0,0,0,.36,0l.41,0a1.41,1.41,0,0,0,.3-.05V14.65h1a.57.57,0,0,0,.4-.15.7.7,0,0,0,.15-.5A1.34,1.34,0,0,0,42.85,13.65Z"/><path class="b" d="M47.52,17.81a1.53,1.53,0,0,0-.11-.25H45.15v-.93h1.61a.48.48,0,0,0,.38-.14.62.62,0,0,0,.14-.47,1.15,1.15,0,0,0,0-.33,1.53,1.53,0,0,0-.11-.25h-2v-.82H47a.56.56,0,0,0,.39-.14.69.69,0,0,0,.14-.48,1.2,1.2,0,0,0-.05-.33,1.07,1.07,0,0,0-.11-.26h-2.9a.85.85,0,0,0-.6.22.81.81,0,0,0-.22.6V18a.77.77,0,0,0,.22.59.81.81,0,0,0,.6.22H47a.54.54,0,0,0,.38-.14.66.66,0,0,0,.15-.48A1.27,1.27,0,0,0,47.52,17.81Z"/><path class="e" d="M32.58,15H31.35a.11.11,0,0,1-.11-.11.13.13,0,0,1,0-.07.08.08,0,0,1,.07,0h1.17Z"/><rect class="e" x="27.5" y="13.18" width="1.67" height="0.21" rx="0.11"/><path class="e" d="M27,16.12a.1.1,0,0,1,0,.07.09.09,0,0,1-.07,0H25.6V16h1.25A.11.11,0,0,1,27,16.12Z"/><path class="e" d="M28.85,18.08H27.73a.11.11,0,0,1-.11-.11.08.08,0,0,1,0-.07.12.12,0,0,1,.08,0h.59A1.39,1.39,0,0,0,28.85,18.08Z"/><path class="e" d="M31.57,18.87a1.86,1.86,0,0,1-.28.21H30.11A.11.11,0,0,1,30,19a.1.1,0,0,1,.11-.11h1.46Z"/></svg>