<svg xmlns="http://www.w3.org/2000/svg" viewBox="0 0 1200 393.74"><defs><style>.a{fill:#1fb598;}.b{fill:#4fbdab;}.c{fill:#e76430;}.d{fill:#f28852;}.e{fill:#41414d;}</style></defs><title>KAROTTE 1200px</title><path class="a" d="M185.21,183c-49.94,10.73-74.11,21.45-93.17,45.3C72.82,252.35,47.26,250,40.45,234.54c-9.73-22,7.88-37.19,25.43-44.13C78,185.6,94.76,181,115.77,176.47c10.94-2.35,230.89-15.63,180.07-10.87C288.22,166.31,209.22,177.84,185.21,183Z"/><polygon class="b" points="337.88 144.35 337.88 144.35 337.88 144.35 337.88 144.35"/><path class="b" d="M840.8,126.4c-2.47,1.19-190.43,17.64-256,21-50.89,2.65-361,19.92-449.68,33.29-49.28,7.42-96.74-.09-122.31-26.52-25.07-25.9-9.15-46,11.33-53.81,26.52-10.06,47.91,16.7,70.32,25.81.2-.24-16.5-7.59-12.56-19.33,5.16-15.37,31.75-.35,54.36,17.63,33.55,23.42,53.4,26.68,72,28.3,54.92,4.78,231.41-7.42,316.82-13.75C662.91,128.86,835,95.52,833.28,96.33Z"/><path class="a" d="M820.64,98.5s2.68,23.42,5.84,38l11.41-.74-4.61-39.41Z"/><path class="a" d="M832.82,124s-42.75,11.17-46.48,30.42,16,22.39,23.09,12.8,22.21-27.72,25.51-33l-.06-10.36Z"/><path class="c" d="M884.63,27.35h0l8-1.23c68.73-10.24,134.66-9.64,190.08-4.49q4.24.39,8.42.83c41.6,4.28,76.8,11.05,102.1,17.46a8.9,8.9,0,0,1,5.83,4.66l.11.23c.07.15.14.3.2.46,1.46,3.59.29,7.59-2.67,10.87-5.23,5.81-20.39,19.69-43.17,37.06q-3.45,2.64-7.13,5.37a738,738,0,0,1-97.49,61.1c-2.46,1.29-4.94,2.56-7.45,3.83a596.64,596.64,0,0,1-86.35,35.75q-3.86,1.24-7.74,2.42-10.35,3.14-20.89,5.85C873.83,221,843.37,173.29,832.14,131c-.88-3.3-1.64-6.58-2.28-9.78,0-.17-.07-.34-.1-.51s-.07-.35-.1-.52c-.12-.6-.23-1.2-.34-1.8q-.72-3.94-1.23-7.91c0-.28-.07-.56-.11-.84s0-.3-.05-.46C823.55,72.37,834.11,35.5,884.63,27.35Z"/><path class="d" d="M880,5.35,882,5q3-.48,6.06-.92c63.44-9,134.85-1.71,192.84,8.7,2.9.52,5.76,1,8.59,1.58,53.83,10.16,94.57,22.49,103.79,25.54a9.78,9.78,0,0,1,5.83,4.66l.11.23c.07.15.14.3.2.46a9.16,9.16,0,0,1-1.83,2c-12.16,10.06-27.92,20.67-47,31.5-2.42,1.36-4.88,2.73-7.4,4.11-27.5,15-61.32,30.29-100.85,45.05-2.53.95-5.09,1.89-7.66,2.83-36.79,13.41-78.3,26.32-124.09,38-36.41,9.31-62.2-10.62-78.37-37.78-.88-3.3-1.64-6.58-2.28-9.78,0-.17-.07-.34-.1-.51s-.07-.35-.1-.52c-.12-.6-.23-1.2-.34-1.8-.46-2.55-.88-5.2-1.23-7.91,0-.28-.07-.56-.11-.84s0-.3-.05-.46C823,69.25,830.92,14.6,880,5.35Z"/><path class="e" d="M880,5.35,882,5q3-.48,6.06-.92l11.85,56.48a4,4,0,0,1-3.13,4.75,4.1,4.1,0,0,1-3-.57A4,4,0,0,1,892,62.23Z"/><rect class="e" x="930.05" y="77.56" width="69.12" height="8.08" rx="0.2" transform="translate(1082.81 1042.41) rotate(-101.85)"/><path class="e" d="M1080.85,12.79c2.9.52,5.76,1,8.59,1.58l8.38,40a4,4,0,0,1-7.9,1.66Z"/><rect class="e" x="838.06" y="120.28" width="69.12" height="8.08" rx="0.2" transform="translate(930.13 1003.87) rotate(-101.85)"/><path class="e" d="M1034.55,110.86a4,4,0,0,1,3,.56,3.93,3.93,0,0,1,1.74,2.52l9.59,45.72c-2.46,1.29-4.94,2.56-7.45,3.83l-10-47.89A4,4,0,0,1,1034.55,110.86Z"/><path class="e" d="M949.21,190.77a4,4,0,0,1,3,.56,3.94,3.94,0,0,1,1.74,2.53l1.13,5.38q-3.86,1.24-7.74,2.42l-1.29-6.14A4,4,0,0,1,949.21,190.77Z"/><path class="e" d="M1142.66,61a4.07,4.07,0,0,1,3,.57,3.89,3.89,0,0,1,1.74,2.52l6.1,29.06q-3.45,2.64-7.13,5.37l-6.88-32.77A4,4,0,0,1,1142.66,61Z"/><path class="b" d="M267,352.23q-4.32-4.56-9-9.59t-9.51-10.3q-4.84-5.26-9.24-10.2l22-22a44.4,44.4,0,0,0,7.39-9.15,17.18,17.18,0,0,0,2.3-8.62,13.67,13.67,0,0,0-5.2-10.65q-5.19-4.48-17.16-4.49L212,309.29v-28a21.31,21.31,0,0,0-1.06-7.39,9.41,9.41,0,0,0-3.16-4.4,12.61,12.61,0,0,0-5.2-2.2,36.67,36.67,0,0,0-7.13-.62,56.13,56.13,0,0,0-8.09.62q-4.23.62-6.16,1v92.93a21.53,21.53,0,0,0,1.05,7.39,9.56,9.56,0,0,0,3.17,4.4,12.49,12.49,0,0,0,5.19,2.2,36.75,36.75,0,0,0,7.13.62,67.22,67.22,0,0,0,8.28-.53,49.71,49.71,0,0,0,6.16-1.05v-38.9L237,364.2a62.85,62.85,0,0,0,8.8,8.54q4.58,3.61,11.8,3.61a19,19,0,0,0,6.33-1.06,15.55,15.55,0,0,0,10.56-15.13Z"/><path class="b" d="M381.34,349q-3.52-12.59-7.22-25.53t-7.39-25.07q-3.69-12.15-6.86-21.3-2-5.46-8.72-8a44,44,0,0,0-15.58-2.56,48.45,48.45,0,0,0-12.22,1.59,37.23,37.23,0,0,0-9.07,3.35q-1.23,3.17-3.43,9.15T306,294.24q-2.64,7.65-5.64,16.28t-5.63,16.81q-2.64,8.19-4.84,15.22t-3.43,11.79q-.89,3.35-1.58,5.82a17.43,17.43,0,0,0-.71,4.92,9.9,9.9,0,0,0,4.32,8.54q4.31,3.08,13.28,3.08a30.45,30.45,0,0,0,6.6-.62,45.64,45.64,0,0,0,5.19-1.49q1.41-5.28,2.82-10.91t2.82-10.92h31.86l3.17,12.15a31.16,31.16,0,0,0,2,5.28,10.43,10.43,0,0,0,3,3.69A12.63,12.63,0,0,0,364,376a30.78,30.78,0,0,0,7.13.71,30,30,0,0,0,10-1.5,14.4,14.4,0,0,0,6.34-4Q384.86,361.57,381.34,349Zm-57-20q2.46-9.33,5.55-18.39t5.54-16.46h1.06q2.12,7.23,4.66,16.28t5,18.57Z"/><path class="b" d="M482.72,349.94q-6.17-7.56-12.5-16.19a40.2,40.2,0,0,0,13.38-12q5.64-7.74,5.64-18.65,0-17.43-12.33-27.64T440.3,265.28a140.79,140.79,0,0,0-16.9,1,66.78,66.78,0,0,0-13.9,3.08,14.53,14.53,0,0,0-5.54,3.26,7.7,7.7,0,0,0-2,5.72v82.9A21.51,21.51,0,0,0,403,368.6a9.71,9.71,0,0,0,3.08,4.4,11.78,11.78,0,0,0,5.1,2.2,36.67,36.67,0,0,0,7.13.62,64.79,64.79,0,0,0,8.18-.53,49.2,49.2,0,0,0,6.08-1.05v-33.8h9.33l14.78,23.76a50.61,50.61,0,0,0,3.35,4.93,19.43,19.43,0,0,0,3.87,3.87,16.17,16.17,0,0,0,4.93,2.47,22.68,22.68,0,0,0,6.68.88A17.88,17.88,0,0,0,486,373.09a16.57,16.57,0,0,0,6.42-9.41A104.43,104.43,0,0,0,482.72,349.94ZM454.2,313.6Q450.35,317,443.65,317H432.38v-26.4c1.29-.23,2.47-.41,3.52-.53a39.7,39.7,0,0,1,4.22-.17q9.33,0,13.65,3.43t4.31,10.12Q458.08,310.17,454.2,313.6Z"/><path class="d" d="M651.56,299c-.37-1.45-.79-2.86-1.25-4.25s-1-2.94-1.6-4.36a63.35,63.35,0,0,0-15.16-22.58A65.08,65.08,0,0,0,611,254,85.23,85.23,0,0,0,555,254a62.46,62.46,0,0,0-37.51,36.39q-5.32,13-5.5,29.81v1.19c0,1,0,2,0,3a80.1,80.1,0,0,0,5.35,27.72,64.78,64.78,0,0,0,14.82,22.69,63.17,63.17,0,0,0,22.46,14A80.83,80.83,0,0,0,583,393.74,82.49,82.49,0,0,0,611.32,389a65.69,65.69,0,0,0,14.56-7.37,58.41,58.41,0,0,0,5.57-4.24h0c.83-.71,1.64-1.45,2.44-2.2a63,63,0,0,0,14.94-22.69q5.38-13.59,5.39-31.11A88.92,88.92,0,0,0,651.56,299ZM576.9,361.53a26.53,26.53,0,0,1-10.4-4.25,28.38,28.38,0,0,1-5.73-5.32q-8.31-10.11-8.31-30.55T560.88,291q8.43-10,22.35-10,14.16,0,22.35,10.11t8.2,30.33q0,20.44-8.31,30.55T583,362.07A33.47,33.47,0,0,1,576.9,361.53Z"/><path class="b" d="M757.34,273a22.67,22.67,0,0,0-2.28-5.28H678.32a11,11,0,0,0-8,3q-3.07,3-3.08,9.86a23.39,23.39,0,0,0,1,7,22.61,22.61,0,0,0,2.3,5.28H697v68.29a21.53,21.53,0,0,0,1,7.39,9.42,9.42,0,0,0,3.17,4.4,12.49,12.49,0,0,0,5.19,2.2,36.67,36.67,0,0,0,7.13.62,64.91,64.91,0,0,0,8.18-.53,49.2,49.2,0,0,0,6.08-1.05V292.92h19.53a11,11,0,0,0,8-3q3.07-3,3.08-9.86A23.08,23.08,0,0,0,757.34,273Z"/><path class="b" d="M857,273a23.07,23.07,0,0,0-2.29-5.28H777.94a11,11,0,0,0-8,3q-3.09,3-3.08,9.86a23.08,23.08,0,0,0,1.06,7,22.67,22.67,0,0,0,2.28,5.28h26.4v68.29a21.27,21.27,0,0,0,1.06,7.39,9.49,9.49,0,0,0,3.17,4.4,12.49,12.49,0,0,0,5.19,2.2,36.67,36.67,0,0,0,7.13.62,64.79,64.79,0,0,0,8.18-.53,49,49,0,0,0,6.07-1.05V292.92h19.54a11,11,0,0,0,8-3q3.07-3,3.08-9.86A23.39,23.39,0,0,0,857,273Z"/><path class="b" d="M950.34,356.28a21.29,21.29,0,0,0-2.2-5.1H902.91V332.7h32.38a10.22,10.22,0,0,0,7.57-2.82q2.82-2.82,2.81-9.5a22.15,22.15,0,0,0-1-6.61,21.57,21.57,0,0,0-2.2-5h-39.6V292.39H940a10.57,10.57,0,0,0,7.66-2.81c1.93-1.88,2.91-5.05,2.91-9.51a22.6,22.6,0,0,0-1-6.69,21.31,21.31,0,0,0-2.19-5.1H889.35q-7.56,0-12,4.4t-4.4,12V359.1q0,7.56,4.4,12t12,4.4h51.4a10.31,10.31,0,0,0,7.65-2.91q2.91-2.9,2.91-9.59A22.93,22.93,0,0,0,950.34,356.28Z"/><path class="e" d="M651.56,299H627a2.12,2.12,0,0,1-2.13-2.12,2.12,2.12,0,0,1,2.13-2.13h23.3C650.77,296.16,651.19,297.57,651.56,299Z"/><rect class="e" x="549.93" y="263.5" width="33.42" height="4.25" rx="0.11"/><path class="e" d="M539.1,322.34a2.12,2.12,0,0,1-2.12,2.12H512.07c0-1,0-2,0-3v-1.19h25A2.12,2.12,0,0,1,539.1,322.34Z"/><path class="e" d="M576.9,361.53H554.58a2.13,2.13,0,0,1,0-4.25H566.5A26.53,26.53,0,0,0,576.9,361.53Z"/><path class="e" d="M631.45,377.41a58.41,58.41,0,0,1-5.57,4.24H602.12a2.12,2.12,0,0,1-1.5-3.62,2.08,2.08,0,0,1,1.5-.63h29.33Z"/></svg>